<svg xmlns="http://www.w3.org/2000/svg" xmlns:xlink="http://www.w3.org/1999/xlink" width="1080" zoomAndPan="magnify" viewBox="0 0 810 809.999993" height="1080" preserveAspectRatio="xMidYMid meet" version="1.0"><defs><clipPath id="id1"><path d="M 733 346 L 796.5 346 L 796.5 408 L 733 408 Z M 733 346 " clip-rule="nonzero"/></clipPath><clipPath id="id2"><path d="M 0.328125 274 L 674 274 L 674 575 L 0.328125 575 Z M 0.328125 274 " clip-rule="nonzero"/></clipPath></defs><path fill="#fc5969" d="M 469.925781 392.273438 C 489.558594 406.246094 558.347656 422.195312 573.15625 424.269531 C 579.632812 425.160156 586.234375 425.726562 592.695312 426.097656 C 606.371094 426.859375 612.425781 444.007812 602.066406 452.960938 C 594.652344 459.4375 584.566406 462.03125 575.503906 462.675781 C 546.257812 464.878906 529.214844 464.039062 517.234375 462.675781 C 501.277344 460.800781 445 442.40625 429.574219 434.695312 C 415.410156 427.621094 383.410156 449.058594 364.378906 458.433594 L 351.429688 402.394531 Z M 469.925781 392.273438 " fill-opacity="1" fill-rule="nonzero"/><path fill="#ff7171" d="M 384.207031 395.898438 L 385.921875 380.90625 L 422.0625 358.769531 C 469.003906 361.199219 518.886719 348.035156 563.996094 356.699219 C 574.304688 358.671875 620.855469 375.773438 635.585938 377.894531 C 636.34375 378.003906 637.089844 378.15625 637.828125 378.351562 C 638.566406 378.550781 639.289062 378.789062 640 379.074219 C 640.707031 379.355469 641.398438 379.679688 642.070312 380.046875 C 642.738281 380.414062 643.386719 380.816406 644.011719 381.257812 C 644.632812 381.703125 645.226562 382.179688 645.792969 382.691406 C 646.359375 383.207031 646.894531 383.75 647.394531 384.328125 C 647.894531 384.902344 648.363281 385.507812 648.792969 386.140625 C 649.222656 386.773438 649.613281 387.425781 649.964844 388.105469 C 650.316406 388.785156 650.625 389.480469 650.894531 390.195312 C 651.164062 390.910156 651.386719 391.640625 651.570312 392.382812 C 651.753906 393.125 651.890625 393.875 651.984375 394.632812 C 652.078125 395.390625 652.125 396.152344 652.128906 396.917969 C 652.128906 397.683594 652.085938 398.445312 652 399.203125 C 651.910156 399.960938 651.777344 400.714844 651.601562 401.457031 C 651.425781 402.199219 651.203125 402.929688 650.941406 403.648438 C 650.675781 404.363281 650.371094 405.0625 650.023438 405.746094 C 639.503906 425.886719 608.75 425.289062 587.707031 419.652344 C 583.144531 418.421875 528.402344 399.574219 487.828125 401.210938 C 421.851562 403.882812 413.371094 419.363281 394.839844 424.351562 L 370.820312 456.347656 Z M 384.207031 395.898438 " fill-opacity="1" fill-rule="nonzero"/><path fill="#ff7171" d="M 457.074219 323.4375 L 528.839844 309.546875 C 575.648438 313.753906 610.433594 321.675781 625.957031 326.320312 C 636.023438 329.316406 646.996094 333.703125 661.5625 336.375 C 662.316406 336.515625 663.058594 336.695312 663.785156 336.921875 C 664.515625 337.144531 665.230469 337.414062 665.929688 337.722656 C 666.628906 338.03125 667.304688 338.382812 667.960938 338.773438 C 668.621094 339.164062 669.25 339.59375 669.855469 340.058594 C 670.460938 340.523438 671.039062 341.027344 671.585938 341.558594 C 672.132812 342.09375 672.644531 342.660156 673.125 343.253906 C 673.601562 343.851562 674.042969 344.472656 674.449219 345.121094 C 674.855469 345.769531 675.222656 346.4375 675.546875 347.128906 C 675.871094 347.820312 676.15625 348.527344 676.398438 349.253906 C 676.640625 349.980469 676.835938 350.714844 676.992188 351.464844 C 677.144531 352.214844 677.253906 352.96875 677.316406 353.730469 C 677.382812 354.492188 677.398438 355.253906 677.375 356.019531 C 677.347656 356.785156 677.277344 357.542969 677.160156 358.300781 C 677.042969 359.054688 676.878906 359.800781 676.675781 360.535156 C 676.46875 361.273438 676.222656 361.996094 675.929688 362.699219 C 675.636719 363.40625 675.304688 364.09375 674.933594 364.761719 C 663.601562 384.5 630.761719 378.945312 610.042969 372.535156 C 605.511719 371.125 554.917969 361.003906 535.980469 362.269531 C 466.527344 374.21875 457.882812 387.59375 439.105469 391.867188 Z M 457.074219 323.4375 " fill-opacity="1" fill-rule="nonzero"/><path fill="#ff527b" d="M 383.898438 228.777344 C 384.535156 228.777344 385.167969 228.714844 385.792969 228.589844 C 386.417969 228.46875 387.023438 228.28125 387.613281 228.039062 C 388.203125 227.792969 388.761719 227.496094 389.292969 227.140625 C 389.824219 226.785156 390.3125 226.382812 390.765625 225.933594 C 391.214844 225.480469 391.617188 224.992188 391.972656 224.460938 C 392.328125 223.929688 392.625 223.371094 392.871094 222.78125 C 393.113281 222.191406 393.296875 221.582031 393.421875 220.957031 C 393.546875 220.332031 393.609375 219.699219 393.609375 219.0625 L 393.609375 10.503906 C 393.609375 9.867188 393.546875 9.234375 393.421875 8.609375 C 393.296875 7.984375 393.113281 7.375 392.871094 6.785156 C 392.625 6.195312 392.328125 5.636719 391.972656 5.105469 C 391.617188 4.578125 391.214844 4.085938 390.765625 3.632812 C 390.3125 3.183594 389.824219 2.78125 389.292969 2.425781 C 388.761719 2.070312 388.203125 1.773438 387.613281 1.527344 C 387.023438 1.285156 386.417969 1.101562 385.792969 0.976562 C 385.167969 0.851562 384.535156 0.789062 383.898438 0.789062 C 383.261719 0.789062 382.628906 0.851562 382.003906 0.976562 C 381.378906 1.101562 380.769531 1.285156 380.179688 1.527344 C 379.59375 1.773438 379.03125 2.070312 378.503906 2.425781 C 377.972656 2.78125 377.480469 3.183594 377.03125 3.632812 C 376.578125 4.085938 376.175781 4.578125 375.824219 5.105469 C 375.46875 5.636719 375.167969 6.195312 374.925781 6.785156 C 374.679688 7.375 374.496094 7.984375 374.371094 8.609375 C 374.25 9.234375 374.1875 9.867188 374.1875 10.503906 L 374.1875 219.0625 C 374.1875 219.699219 374.25 220.332031 374.371094 220.957031 C 374.496094 221.582031 374.679688 222.191406 374.925781 222.78125 C 375.167969 223.371094 375.46875 223.929688 375.824219 224.460938 C 376.175781 224.992188 376.578125 225.480469 377.03125 225.933594 C 377.480469 226.382812 377.972656 226.785156 378.503906 227.140625 C 379.03125 227.496094 379.59375 227.792969 380.179688 228.039062 C 380.769531 228.28125 381.378906 228.46875 382.003906 228.589844 C 382.628906 228.714844 383.261719 228.777344 383.898438 228.777344 Z M 383.898438 228.777344 " fill-opacity="1" fill-rule="nonzero"/><path fill="#ffa440" d="M 427.050781 177.335938 C 427.6875 177.335938 428.316406 177.273438 428.945312 177.148438 C 429.570312 177.023438 430.175781 176.839844 430.765625 176.59375 C 431.355469 176.351562 431.914062 176.050781 432.445312 175.699219 C 432.972656 175.34375 433.464844 174.941406 433.914062 174.488281 C 434.367188 174.039062 434.769531 173.546875 435.125 173.015625 C 435.476562 172.488281 435.777344 171.925781 436.019531 171.335938 C 436.265625 170.746094 436.449219 170.140625 436.574219 169.515625 C 436.699219 168.890625 436.761719 168.257812 436.761719 167.621094 L 436.761719 69.378906 C 436.761719 68.742188 436.699219 68.109375 436.574219 67.484375 C 436.449219 66.859375 436.265625 66.25 436.019531 65.664062 C 435.777344 65.074219 435.476562 64.511719 435.125 63.984375 C 434.769531 63.453125 434.367188 62.960938 433.914062 62.511719 C 433.464844 62.058594 432.972656 61.65625 432.445312 61.300781 C 431.914062 60.949219 431.355469 60.648438 430.765625 60.402344 C 430.175781 60.160156 429.570312 59.976562 428.945312 59.851562 C 428.316406 59.726562 427.6875 59.664062 427.050781 59.664062 C 426.410156 59.664062 425.78125 59.726562 425.152344 59.851562 C 424.527344 59.976562 423.921875 60.160156 423.332031 60.402344 C 422.742188 60.648438 422.183594 60.949219 421.652344 61.300781 C 421.125 61.65625 420.632812 62.058594 420.183594 62.511719 C 419.730469 62.960938 419.328125 63.453125 418.972656 63.984375 C 418.621094 64.511719 418.320312 65.074219 418.078125 65.664062 C 417.832031 66.25 417.648438 66.859375 417.523438 67.484375 C 417.398438 68.109375 417.335938 68.742188 417.335938 69.378906 L 417.335938 167.621094 C 417.335938 168.257812 417.398438 168.890625 417.523438 169.515625 C 417.648438 170.140625 417.832031 170.746094 418.078125 171.335938 C 418.320312 171.925781 418.621094 172.488281 418.972656 173.015625 C 419.328125 173.546875 419.730469 174.039062 420.183594 174.488281 C 420.632812 174.941406 421.125 175.34375 421.652344 175.699219 C 422.183594 176.050781 422.742188 176.351562 423.332031 176.59375 C 423.921875 176.839844 424.527344 177.023438 425.152344 177.148438 C 425.78125 177.273438 426.410156 177.335938 427.050781 177.335938 Z M 427.050781 177.335938 " fill-opacity="1" fill-rule="nonzero"/><path fill="#ff527b" d="M 383.898438 809.714844 C 384.535156 809.714844 385.167969 809.652344 385.792969 809.527344 C 386.417969 809.402344 387.023438 809.21875 387.613281 808.972656 C 388.203125 808.730469 388.761719 808.429688 389.292969 808.074219 C 389.824219 807.722656 390.3125 807.316406 390.765625 806.867188 C 391.214844 806.417969 391.617188 805.925781 391.972656 805.394531 C 392.328125 804.863281 392.625 804.304688 392.871094 803.714844 C 393.113281 803.125 393.296875 802.519531 393.421875 801.894531 C 393.546875 801.265625 393.609375 800.636719 393.609375 799.996094 L 393.609375 591.4375 C 393.609375 590.800781 393.546875 590.167969 393.421875 589.542969 C 393.296875 588.917969 393.113281 588.3125 392.871094 587.722656 C 392.625 587.132812 392.328125 586.570312 391.972656 586.042969 C 391.617188 585.511719 391.214844 585.019531 390.765625 584.570312 C 390.3125 584.117188 389.824219 583.714844 389.292969 583.359375 C 388.761719 583.007812 388.203125 582.707031 387.613281 582.464844 C 387.023438 582.21875 386.417969 582.035156 385.792969 581.910156 C 385.167969 581.785156 384.535156 581.722656 383.898438 581.722656 C 383.261719 581.722656 382.628906 581.785156 382.003906 581.910156 C 381.378906 582.035156 380.769531 582.21875 380.179688 582.464844 C 379.59375 582.707031 379.03125 583.007812 378.503906 583.359375 C 377.972656 583.714844 377.480469 584.117188 377.03125 584.570312 C 376.578125 585.019531 376.175781 585.511719 375.824219 586.042969 C 375.46875 586.570312 375.167969 587.132812 374.925781 587.722656 C 374.679688 588.3125 374.496094 588.917969 374.371094 589.542969 C 374.25 590.167969 374.1875 590.800781 374.1875 591.4375 L 374.1875 799.996094 C 374.1875 800.636719 374.25 801.265625 374.371094 801.894531 C 374.496094 802.519531 374.679688 803.125 374.925781 803.714844 C 375.167969 804.304688 375.46875 804.863281 375.824219 805.394531 C 376.175781 805.925781 376.578125 806.417969 377.03125 806.867188 C 377.480469 807.320312 377.972656 807.722656 378.503906 808.074219 C 379.03125 808.429688 379.59375 808.730469 380.179688 808.972656 C 380.769531 809.21875 381.378906 809.402344 382.003906 809.527344 C 382.628906 809.652344 383.261719 809.714844 383.898438 809.714844 Z M 383.898438 809.714844 " fill-opacity="1" fill-rule="nonzero"/><path fill="#ffa440" d="M 427.050781 758.269531 C 427.6875 758.269531 428.316406 758.207031 428.945312 758.082031 C 429.570312 757.957031 430.175781 757.773438 430.765625 757.53125 C 431.355469 757.285156 431.914062 756.988281 432.445312 756.632812 C 432.972656 756.277344 433.464844 755.875 433.914062 755.425781 C 434.367188 754.972656 434.769531 754.480469 435.125 753.953125 C 435.476562 753.421875 435.777344 752.863281 436.019531 752.273438 C 436.265625 751.683594 436.449219 751.074219 436.574219 750.449219 C 436.699219 749.824219 436.761719 749.191406 436.761719 748.554688 L 436.761719 650.316406 C 436.761719 649.675781 436.699219 649.046875 436.574219 648.417969 C 436.449219 647.792969 436.265625 647.1875 436.019531 646.597656 C 435.777344 646.007812 435.476562 645.449219 435.125 644.917969 C 434.769531 644.386719 434.367188 643.894531 433.914062 643.445312 C 433.464844 642.992188 432.972656 642.589844 432.445312 642.238281 C 431.914062 641.882812 431.355469 641.582031 430.765625 641.339844 C 430.175781 641.09375 429.570312 640.910156 428.945312 640.785156 C 428.316406 640.660156 427.6875 640.597656 427.050781 640.597656 C 426.410156 640.597656 425.78125 640.660156 425.152344 640.785156 C 424.527344 640.910156 423.921875 641.09375 423.332031 641.339844 C 422.742188 641.582031 422.183594 641.882812 421.652344 642.238281 C 421.125 642.589844 420.632812 642.992188 420.183594 643.445312 C 419.730469 643.894531 419.328125 644.386719 418.972656 644.917969 C 418.621094 645.449219 418.320312 646.007812 418.078125 646.597656 C 417.832031 647.1875 417.648438 647.792969 417.523438 648.417969 C 417.398438 649.046875 417.335938 649.675781 417.335938 650.316406 L 417.335938 748.554688 C 417.335938 749.191406 417.398438 749.824219 417.523438 750.449219 C 417.648438 751.074219 417.832031 751.683594 418.078125 752.273438 C 418.320312 752.863281 418.621094 753.421875 418.972656 753.953125 C 419.328125 754.480469 419.730469 754.972656 420.183594 755.425781 C 420.632812 755.875 421.125 756.277344 421.652344 756.632812 C 422.183594 756.988281 422.742188 757.285156 423.332031 757.53125 C 423.921875 757.773438 424.527344 757.957031 425.152344 758.082031 C 425.78125 758.207031 426.410156 758.269531 427.050781 758.269531 Z M 427.050781 758.269531 " fill-opacity="1" fill-rule="nonzero"/><path fill="#4cbdcc" d="M 513.773438 118.863281 L 560.289062 92 C 561.179688 91.484375 562.121094 91.09375 563.113281 90.828125 C 564.105469 90.5625 565.113281 90.429688 566.144531 90.429688 C 567.171875 90.425781 568.179688 90.558594 569.171875 90.824219 C 570.164062 91.089844 571.105469 91.480469 571.996094 91.996094 C 572.886719 92.507812 573.695312 93.128906 574.421875 93.855469 C 575.148438 94.582031 575.769531 95.390625 576.28125 96.28125 C 576.796875 97.171875 577.1875 98.113281 577.453125 99.105469 C 577.71875 100.097656 577.851562 101.109375 577.851562 102.136719 L 577.851562 155.878906 C 577.851562 156.390625 577.816406 156.902344 577.75 157.410156 C 577.683594 157.914062 577.582031 158.417969 577.449219 158.910156 C 577.316406 159.40625 577.152344 159.886719 576.957031 160.359375 C 576.761719 160.832031 576.535156 161.292969 576.28125 161.734375 C 576.023438 162.175781 575.742188 162.601562 575.429688 163.007812 C 575.117188 163.414062 574.78125 163.796875 574.417969 164.160156 C 574.058594 164.519531 573.675781 164.859375 573.269531 165.167969 C 572.863281 165.480469 572.4375 165.765625 571.996094 166.019531 C 571.554688 166.277344 571.09375 166.503906 570.625 166.699219 C 570.152344 166.894531 569.667969 167.058594 569.171875 167.191406 C 568.679688 167.324219 568.179688 167.425781 567.671875 167.492188 C 567.164062 167.558594 566.65625 167.59375 566.144531 167.59375 C 565.632812 167.59375 565.125 167.5625 564.617188 167.496094 C 564.109375 167.429688 563.609375 167.332031 563.113281 167.199219 C 562.621094 167.066406 562.136719 166.902344 561.664062 166.707031 C 561.191406 166.511719 560.734375 166.289062 560.289062 166.03125 L 513.773438 139.203125 C 512.875 138.691406 512.0625 138.070312 511.328125 137.34375 C 510.59375 136.617188 509.96875 135.804688 509.453125 134.914062 C 508.933594 134.019531 508.539062 133.074219 508.269531 132.078125 C 508.003906 131.082031 507.867188 130.066406 507.867188 129.03125 C 507.867188 128 508.003906 126.984375 508.269531 125.988281 C 508.539062 124.992188 508.933594 124.046875 509.453125 123.152344 C 509.96875 122.261719 510.59375 121.449219 511.328125 120.722656 C 512.0625 119.996094 512.875 119.375 513.773438 118.863281 Z M 513.773438 118.863281 " fill-opacity="1" fill-rule="nonzero"/><path fill="#ffba76" d="M 639.828125 656.242188 L 653.699219 690.828125 C 654.082031 691.78125 654.332031 692.769531 654.457031 693.789062 C 654.578125 694.8125 654.566406 695.832031 654.421875 696.847656 C 654.277344 697.867188 654 698.847656 653.597656 699.792969 C 653.195312 700.738281 652.675781 701.617188 652.039062 702.421875 C 651.40625 703.230469 650.675781 703.945312 649.851562 704.5625 C 649.03125 705.175781 648.140625 705.675781 647.1875 706.058594 C 646.234375 706.441406 645.246094 706.691406 644.226562 706.816406 C 643.207031 706.9375 642.1875 706.925781 641.167969 706.777344 L 604.296875 701.515625 C 603.28125 701.371094 602.296875 701.097656 601.351562 700.695312 C 600.40625 700.292969 599.527344 699.773438 598.71875 699.136719 C 597.910156 698.503906 597.195312 697.773438 596.578125 696.953125 C 595.960938 696.128906 595.460938 695.242188 595.078125 694.285156 C 594.695312 693.332031 594.441406 692.34375 594.316406 691.320312 C 594.195312 690.300781 594.207031 689.28125 594.351562 688.261719 C 594.5 687.242188 594.773438 686.261719 595.179688 685.316406 C 595.582031 684.371094 596.105469 683.492188 596.738281 682.683594 L 619.738281 653.375 C 620.054688 652.972656 620.398438 652.59375 620.761719 652.234375 C 621.128906 651.875 621.515625 651.542969 621.925781 651.238281 C 622.335938 650.929688 622.761719 650.652344 623.210938 650.398438 C 623.65625 650.148438 624.117188 649.929688 624.589844 649.738281 C 625.066406 649.546875 625.550781 649.386719 626.046875 649.261719 C 626.542969 649.132812 627.042969 649.039062 627.550781 648.976562 C 628.0625 648.917969 628.570312 648.890625 629.082031 648.894531 C 629.59375 648.902344 630.101562 648.9375 630.609375 649.011719 C 631.117188 649.082031 631.617188 649.1875 632.109375 649.328125 C 632.601562 649.464844 633.082031 649.632812 633.554688 649.835938 C 634.023438 650.035156 634.480469 650.265625 634.921875 650.527344 C 635.363281 650.789062 635.78125 651.074219 636.1875 651.390625 C 636.589844 651.707031 636.96875 652.046875 637.328125 652.414062 C 637.683594 652.78125 638.019531 653.167969 638.324219 653.578125 C 638.632812 653.988281 638.910156 654.414062 639.164062 654.859375 C 639.414062 655.304688 639.636719 655.765625 639.828125 656.242188 Z M 639.828125 656.242188 " fill-opacity="1" fill-rule="nonzero"/><g clip-path="url(#id1)"><path fill="#889b3a" d="M 780.464844 354.316406 L 795.257812 391.171875 C 795.449219 391.648438 795.605469 392.132812 795.730469 392.628906 C 795.855469 393.125 795.949219 393.625 796.011719 394.132812 C 796.070312 394.640625 796.097656 395.148438 796.089844 395.660156 C 796.085938 396.171875 796.042969 396.683594 795.972656 397.1875 C 795.898438 397.695312 795.792969 398.191406 795.65625 398.6875 C 795.515625 399.179688 795.347656 399.660156 795.144531 400.128906 C 794.945312 400.597656 794.710938 401.054688 794.453125 401.492188 C 794.191406 401.933594 793.902344 402.355469 793.585938 402.757812 C 793.269531 403.160156 792.929688 403.539062 792.566406 403.894531 C 792.199219 404.253906 791.8125 404.585938 791.402344 404.894531 C 790.996094 405.199219 790.566406 405.476562 790.121094 405.730469 C 789.675781 405.980469 789.214844 406.199219 788.742188 406.390625 C 788.269531 406.582031 787.78125 406.742188 787.289062 406.867188 C 786.792969 406.996094 786.292969 407.089844 785.785156 407.152344 C 785.277344 407.214844 784.765625 407.242188 784.257812 407.238281 C 783.746094 407.230469 783.238281 407.191406 782.730469 407.121094 L 743.449219 401.519531 C 742.429688 401.375 741.445312 401.101562 740.5 400.699219 C 739.554688 400.296875 738.675781 399.777344 737.867188 399.140625 C 737.058594 398.507812 736.34375 397.777344 735.726562 396.957031 C 735.109375 396.132812 734.609375 395.242188 734.226562 394.289062 C 733.84375 393.335938 733.589844 392.347656 733.464844 391.324219 C 733.34375 390.304688 733.355469 389.285156 733.5 388.265625 C 733.648438 387.246094 733.921875 386.265625 734.328125 385.320312 C 734.730469 384.371094 735.253906 383.496094 735.890625 382.6875 L 760.394531 351.453125 C 761.027344 350.644531 761.757812 349.929688 762.578125 349.3125 C 763.398438 348.695312 764.285156 348.195312 765.242188 347.8125 C 766.195312 347.429688 767.179688 347.175781 768.199219 347.054688 C 769.222656 346.929688 770.238281 346.941406 771.257812 347.085938 C 772.273438 347.230469 773.253906 347.503906 774.199219 347.910156 C 775.144531 348.3125 776.019531 348.832031 776.828125 349.46875 C 777.636719 350.101562 778.351562 350.832031 778.964844 351.652344 C 779.582031 352.476562 780.082031 353.363281 780.464844 354.316406 Z M 780.464844 354.316406 " fill-opacity="1" fill-rule="nonzero"/></g><path fill="#fcd9be" d="M 681.585938 203.292969 L 703.195312 190.808594 C 703.636719 190.550781 704.09375 190.328125 704.566406 190.132812 C 705.039062 189.9375 705.523438 189.773438 706.015625 189.640625 C 706.511719 189.511719 707.011719 189.410156 707.515625 189.34375 C 708.023438 189.277344 708.53125 189.246094 709.042969 189.246094 C 709.554688 189.246094 710.0625 189.28125 710.570312 189.347656 C 711.078125 189.414062 711.578125 189.511719 712.070312 189.644531 C 712.566406 189.777344 713.046875 189.941406 713.519531 190.136719 C 713.992188 190.332031 714.449219 190.558594 714.894531 190.816406 C 715.335938 191.070312 715.761719 191.351562 716.164062 191.664062 C 716.570312 191.976562 716.953125 192.3125 717.316406 192.671875 C 717.679688 193.035156 718.015625 193.417969 718.328125 193.824219 C 718.636719 194.226562 718.921875 194.652344 719.179688 195.09375 C 719.433594 195.539062 719.660156 195.996094 719.855469 196.464844 C 720.054688 196.9375 720.21875 197.421875 720.351562 197.914062 C 720.484375 198.410156 720.585938 198.910156 720.652344 199.417969 C 720.71875 199.921875 720.753906 200.433594 720.753906 200.945312 L 720.753906 225.910156 C 720.753906 226.421875 720.722656 226.933594 720.652344 227.441406 C 720.585938 227.949219 720.488281 228.449219 720.355469 228.941406 C 720.222656 229.4375 720.058594 229.921875 719.863281 230.394531 C 719.664062 230.867188 719.441406 231.324219 719.183594 231.765625 C 718.929688 232.210938 718.644531 232.632812 718.332031 233.039062 C 718.023438 233.445312 717.683594 233.828125 717.324219 234.191406 C 716.960938 234.554688 716.578125 234.890625 716.171875 235.203125 C 715.765625 235.511719 715.34375 235.796875 714.898438 236.054688 C 714.457031 236.308594 714 236.535156 713.527344 236.730469 C 713.054688 236.925781 712.570312 237.089844 712.078125 237.222656 C 711.582031 237.355469 711.082031 237.457031 710.574219 237.523438 C 710.070312 237.589844 709.558594 237.625 709.046875 237.625 C 708.535156 237.625 708.027344 237.59375 707.519531 237.527344 C 707.011719 237.460938 706.511719 237.363281 706.019531 237.230469 C 705.523438 237.097656 705.039062 236.933594 704.566406 236.738281 C 704.09375 236.546875 703.636719 236.320312 703.195312 236.066406 L 681.585938 223.582031 C 680.695312 223.066406 679.886719 222.445312 679.15625 221.71875 C 678.429688 220.992188 677.808594 220.183594 677.296875 219.292969 C 676.78125 218.402344 676.390625 217.460938 676.125 216.46875 C 675.859375 215.476562 675.722656 214.464844 675.722656 213.4375 C 675.722656 212.40625 675.859375 211.394531 676.125 210.402344 C 676.390625 209.410156 676.78125 208.46875 677.296875 207.578125 C 677.808594 206.6875 678.429688 205.878906 679.15625 205.152344 C 679.886719 204.425781 680.695312 203.804688 681.585938 203.292969 Z M 681.585938 203.292969 " fill-opacity="1" fill-rule="nonzero"/><path fill="#ff6757" d="M 702.367188 575.199219 L 705.863281 549.742188 C 706.003906 548.726562 706.273438 547.742188 706.671875 546.792969 C 707.066406 545.847656 707.582031 544.964844 708.210938 544.152344 C 708.84375 543.339844 709.566406 542.625 710.386719 542.003906 C 711.203125 541.382812 712.089844 540.875 713.039062 540.488281 C 713.992188 540.101562 714.976562 539.839844 715.996094 539.714844 C 717.015625 539.585938 718.035156 539.589844 719.054688 539.730469 C 720.070312 539.871094 721.054688 540.140625 722 540.539062 C 722.949219 540.9375 723.828125 541.453125 724.640625 542.085938 L 744.9375 557.855469 C 745.753906 558.484375 746.476562 559.210938 747.101562 560.03125 C 747.730469 560.851562 748.238281 561.738281 748.632812 562.695312 C 749.023438 563.648438 749.285156 564.640625 749.414062 565.664062 C 749.546875 566.6875 749.542969 567.710938 749.402344 568.734375 C 749.261719 569.757812 748.992188 570.746094 748.59375 571.695312 C 748.191406 572.648438 747.675781 573.53125 747.039062 574.34375 C 746.40625 575.160156 745.679688 575.878906 744.855469 576.5 C 744.03125 577.125 743.140625 577.628906 742.183594 578.015625 L 718.390625 587.730469 C 717.4375 588.121094 716.445312 588.378906 715.421875 588.507812 C 714.398438 588.636719 713.375 588.628906 712.351562 588.488281 C 711.332031 588.347656 710.34375 588.074219 709.394531 587.671875 C 708.441406 587.265625 707.5625 586.746094 706.75 586.113281 C 705.933594 585.476562 705.21875 584.746094 704.597656 583.921875 C 703.976562 583.09375 703.476562 582.203125 703.089844 581.246094 C 702.707031 580.285156 702.453125 579.292969 702.332031 578.269531 C 702.207031 577.242188 702.21875 576.21875 702.367188 575.199219 Z M 702.367188 575.199219 " fill-opacity="1" fill-rule="nonzero"/><path fill="#ffd9d9" d="M 498.976562 672.222656 L 487.195312 663.058594 C 486.382812 662.429688 485.667969 661.703125 485.046875 660.882812 C 484.425781 660.066406 483.917969 659.179688 483.53125 658.226562 C 483.144531 657.273438 482.886719 656.289062 482.757812 655.269531 C 482.628906 654.25 482.636719 653.230469 482.777344 652.210938 C 482.917969 651.191406 483.1875 650.210938 483.585938 649.261719 C 483.984375 648.316406 484.5 647.433594 485.128906 646.625 C 485.761719 645.8125 486.484375 645.09375 487.304688 644.476562 C 488.125 643.855469 489.011719 643.351562 489.960938 642.964844 L 503.785156 637.328125 C 504.257812 637.136719 504.742188 636.976562 505.238281 636.84375 C 505.734375 636.714844 506.234375 636.621094 506.742188 636.554688 C 507.25 636.492188 507.761719 636.460938 508.273438 636.464844 C 508.785156 636.46875 509.292969 636.503906 509.800781 636.574219 C 510.308594 636.644531 510.808594 636.746094 511.300781 636.882812 C 511.796875 637.019531 512.277344 637.1875 512.75 637.386719 C 513.222656 637.582031 513.675781 637.8125 514.121094 638.070312 C 514.5625 638.328125 514.984375 638.617188 515.386719 638.929688 C 515.792969 639.246094 516.175781 639.582031 516.535156 639.949219 C 516.894531 640.3125 517.226562 640.699219 517.539062 641.105469 C 517.847656 641.511719 518.128906 641.941406 518.382812 642.382812 C 518.632812 642.828125 518.859375 643.289062 519.050781 643.761719 C 519.242188 644.238281 519.40625 644.722656 519.535156 645.21875 C 519.664062 645.710938 519.761719 646.214844 519.824219 646.722656 C 519.890625 647.230469 519.921875 647.738281 519.917969 648.25 C 519.914062 648.765625 519.878906 649.273438 519.808594 649.78125 L 517.769531 664.582031 C 517.699219 665.085938 517.597656 665.585938 517.460938 666.082031 C 517.324219 666.574219 517.15625 667.054688 516.957031 667.527344 C 516.757812 668 516.527344 668.457031 516.269531 668.898438 C 516.011719 669.339844 515.722656 669.761719 515.410156 670.164062 C 515.09375 670.566406 514.757812 670.949219 514.390625 671.308594 C 514.027344 671.667969 513.640625 672.003906 513.234375 672.3125 C 512.824219 672.621094 512.398438 672.902344 511.953125 673.152344 C 511.511719 673.40625 511.050781 673.628906 510.578125 673.824219 C 510.101562 674.015625 509.617188 674.175781 509.125 674.304688 C 508.628906 674.433594 508.128906 674.53125 507.621094 674.59375 C 507.113281 674.660156 506.601562 674.6875 506.089844 674.683594 C 505.578125 674.683594 505.070312 674.644531 504.5625 674.574219 C 504.058594 674.503906 503.558594 674.402344 503.0625 674.269531 C 502.570312 674.132812 502.085938 673.964844 501.617188 673.765625 C 501.144531 673.566406 500.6875 673.339844 500.246094 673.082031 C 499.804688 672.824219 499.382812 672.535156 498.976562 672.222656 Z M 498.976562 672.222656 " fill-opacity="1" fill-rule="nonzero"/><path fill="#ed4559" d="M 421.984375 439.101562 C 423.203125 439.101562 424.382812 438.878906 425.519531 438.433594 C 426.65625 437.992188 427.671875 437.355469 428.570312 436.527344 C 446.648438 419.832031 469.035156 366.007812 471.542969 359.9375 C 471.785156 359.347656 471.96875 358.738281 472.09375 358.113281 C 472.214844 357.484375 472.277344 356.851562 472.277344 356.214844 C 472.273438 355.578125 472.210938 354.945312 472.085938 354.320312 C 471.957031 353.691406 471.773438 353.085938 471.527344 352.496094 C 471.28125 351.90625 470.980469 351.347656 470.625 350.816406 C 470.269531 350.289062 469.867188 349.796875 469.414062 349.347656 C 468.960938 348.898438 468.46875 348.496094 467.9375 348.140625 C 467.40625 347.789062 466.84375 347.492188 466.253906 347.25 C 465.664062 347.007812 465.054688 346.824219 464.429688 346.699219 C 463.804688 346.578125 463.171875 346.519531 462.535156 346.519531 C 461.894531 346.523438 461.261719 346.585938 460.636719 346.714844 C 460.011719 346.839844 459.40625 347.027344 458.816406 347.273438 C 458.226562 347.519531 457.667969 347.820312 457.140625 348.175781 C 456.609375 348.53125 456.121094 348.9375 455.671875 349.390625 C 455.222656 349.84375 454.820312 350.335938 454.46875 350.867188 C 454.117188 351.402344 453.820312 351.960938 453.578125 352.554688 C 447.25 367.984375 428.035156 410.570312 415.394531 422.179688 C 414.675781 422.84375 414.074219 423.597656 413.582031 424.441406 C 413.089844 425.289062 412.734375 426.1875 412.515625 427.140625 C 412.296875 428.09375 412.222656 429.054688 412.292969 430.03125 C 412.367188 431.003906 412.578125 431.949219 412.933594 432.859375 C 413.292969 433.769531 413.773438 434.605469 414.382812 435.371094 C 414.992188 436.136719 415.699219 436.792969 416.503906 437.34375 C 417.3125 437.898438 418.183594 438.316406 419.117188 438.605469 C 420.050781 438.894531 421.003906 439.035156 421.984375 439.035156 Z M 421.984375 439.101562 " fill-opacity="1" fill-rule="nonzero"/><g clip-path="url(#id2)"><path fill="#ff8c83" d="M 31.066406 414.359375 C 74.847656 411.460938 155.597656 403.996094 206.875 386.507812 C 249.476562 371.933594 281.328125 348.101562 320.578125 320.441406 C 342.722656 304.816406 365.496094 308.832031 392.523438 306.972656 C 443.347656 303.441406 492.277344 280.433594 523.289062 275.882812 C 532.605469 274.503906 541.914062 274.574219 551.210938 276.09375 C 581.492188 281.078125 620.339844 285.695312 651.398438 285.320312 C 667.390625 285.144531 678.800781 302.90625 671.113281 316.960938 C 667.632812 323.324219 658.570312 331.890625 648.097656 336.28125 C 624.773438 345.996094 581.023438 339.957031 549.625 336.507812 C 544.140625 335.921875 538.746094 336.371094 533.4375 337.851562 C 505.921875 345.460938 441.46875 378.152344 435.320312 390.136719 C 423.601562 412.917969 409.941406 431.199219 411.042969 444.023438 C 412.367188 459.277344 482.453125 504.777344 495.207031 511.433594 C 520.519531 524.546875 531.105469 541.179688 526.300781 561.0625 C 526.160156 561.640625 525.992188 562.210938 525.792969 562.769531 C 525.597656 563.332031 525.371094 563.882812 525.117188 564.417969 C 524.863281 564.957031 524.585938 565.480469 524.277344 565.992188 C 523.972656 566.5 523.640625 566.992188 523.285156 567.46875 C 522.929688 567.945312 522.550781 568.402344 522.148438 568.839844 C 521.746094 569.277344 521.320312 569.695312 520.878906 570.089844 C 520.433594 570.484375 519.96875 570.855469 519.488281 571.203125 C 519.003906 571.550781 518.507812 571.871094 517.992188 572.167969 C 517.476562 572.464844 516.949219 572.738281 516.40625 572.980469 C 515.863281 573.222656 515.3125 573.4375 514.746094 573.625 C 514.183594 573.8125 513.609375 573.972656 513.03125 574.101562 C 512.449219 574.230469 511.867188 574.332031 511.273438 574.402344 C 510.683594 574.472656 510.09375 574.511719 509.5 574.523438 C 508.902344 574.53125 508.3125 574.511719 507.71875 574.460938 C 507.125 574.414062 506.539062 574.332031 505.953125 574.222656 C 505.371094 574.113281 504.792969 573.972656 504.222656 573.804688 C 489.074219 569.402344 472.53125 562.472656 452.007812 557.613281 C 435.984375 553.890625 401.929688 532.078125 362 531.707031 C 323.007812 531.382812 287.917969 531.707031 256.015625 525.34375 C 246.695312 523.421875 237.28125 522.617188 227.773438 522.929688 C 218.265625 523.242188 208.925781 524.660156 199.753906 527.1875 C 157.28125 539.105469 81.433594 560.042969 40.386719 569.289062 C 39.1875 569.558594 37.976562 569.757812 36.757812 569.890625 C 35.535156 570.023438 34.308594 570.085938 33.082031 570.082031 C 31.851562 570.078125 30.628906 570.003906 29.40625 569.863281 C 28.1875 569.722656 26.976562 569.511719 25.78125 569.234375 C 24.582031 568.957031 23.40625 568.613281 22.246094 568.203125 C 21.085938 567.792969 19.953125 567.320312 18.847656 566.785156 C 17.742188 566.25 16.671875 565.652344 15.632812 564.996094 C 14.59375 564.339844 13.59375 563.625 12.636719 562.855469 C 11.675781 562.089844 10.761719 561.269531 9.894531 560.398438 C 9.027344 559.527344 8.214844 558.609375 7.449219 557.644531 C 6.683594 556.683594 5.976562 555.679688 5.324219 554.640625 C 4.671875 553.597656 4.082031 552.523438 3.546875 551.414062 C 3.015625 550.304688 2.550781 549.171875 2.144531 548.011719 C 1.738281 546.847656 1.402344 545.667969 1.128906 544.46875 C 0.855469 543.269531 0.652344 542.0625 0.515625 540.839844 C 0.378906 539.617188 0.3125 538.390625 0.3125 537.164062 L 0.3125 447.199219 C 0.3125 446.164062 0.359375 445.132812 0.457031 444.105469 C 0.554688 443.078125 0.699219 442.054688 0.890625 441.039062 C 1.085938 440.023438 1.324219 439.023438 1.613281 438.03125 C 1.902344 437.039062 2.234375 436.0625 2.613281 435.101562 C 2.992188 434.140625 3.417969 433.199219 3.886719 432.277344 C 4.351562 431.355469 4.863281 430.460938 5.417969 429.585938 C 5.96875 428.714844 6.5625 427.871094 7.191406 427.054688 C 7.824219 426.234375 8.492188 425.449219 9.199219 424.695312 C 9.90625 423.941406 10.644531 423.222656 11.417969 422.539062 C 12.195312 421.855469 12.996094 421.210938 13.832031 420.601562 C 14.667969 419.992188 15.527344 419.425781 16.414062 418.898438 C 17.304688 418.371094 18.214844 417.886719 19.148438 417.445312 C 20.082031 417.003906 21.035156 416.605469 22.003906 416.253906 C 22.976562 415.902344 23.960938 415.597656 24.960938 415.339844 C 25.960938 415.082031 26.96875 414.867188 27.988281 414.707031 C 29.007812 414.542969 30.035156 414.425781 31.066406 414.359375 Z M 31.066406 414.359375 " fill-opacity="1" fill-rule="nonzero"/></g><path fill="#1e6672" d="M 342.398438 758.625 C 343.035156 758.625 343.667969 758.5625 344.292969 758.4375 C 344.917969 758.316406 345.523438 758.128906 346.113281 757.886719 C 346.703125 757.640625 347.261719 757.34375 347.792969 756.988281 C 348.324219 756.632812 348.8125 756.230469 349.265625 755.78125 C 349.714844 755.328125 350.117188 754.839844 350.472656 754.308594 C 350.828125 753.777344 351.125 753.21875 351.371094 752.628906 C 351.613281 752.039062 351.796875 751.429688 351.921875 750.804688 C 352.046875 750.179688 352.109375 749.546875 352.109375 748.910156 L 352.109375 87.46875 C 352.109375 86.828125 352.046875 86.199219 351.921875 85.570312 C 351.796875 84.945312 351.613281 84.339844 351.371094 83.75 C 351.125 83.160156 350.828125 82.601562 350.472656 82.070312 C 350.117188 81.539062 349.714844 81.046875 349.265625 80.597656 C 348.8125 80.144531 348.324219 79.742188 347.792969 79.390625 C 347.261719 79.035156 346.703125 78.734375 346.113281 78.492188 C 345.523438 78.246094 344.917969 78.0625 344.292969 77.9375 C 343.667969 77.8125 343.035156 77.75 342.398438 77.75 C 341.761719 77.75 341.128906 77.8125 340.503906 77.9375 C 339.878906 78.0625 339.269531 78.246094 338.679688 78.492188 C 338.09375 78.734375 337.53125 79.035156 337.003906 79.390625 C 336.472656 79.742188 335.980469 80.144531 335.53125 80.597656 C 335.078125 81.046875 334.675781 81.539062 334.324219 82.070312 C 333.96875 82.601562 333.667969 83.160156 333.425781 83.75 C 333.179688 84.339844 332.996094 84.945312 332.871094 85.570312 C 332.75 86.199219 332.6875 86.828125 332.6875 87.46875 L 332.6875 748.910156 C 332.6875 749.546875 332.75 750.179688 332.871094 750.804688 C 332.996094 751.429688 333.179688 752.039062 333.425781 752.628906 C 333.667969 753.21875 333.96875 753.777344 334.324219 754.308594 C 334.675781 754.839844 335.078125 755.328125 335.53125 755.78125 C 335.980469 756.230469 336.472656 756.632812 337.003906 756.988281 C 337.53125 757.34375 338.09375 757.640625 338.679688 757.886719 C 339.269531 758.128906 339.878906 758.316406 340.503906 758.4375 C 341.128906 758.5625 341.761719 758.625 342.398438 758.625 Z M 342.398438 758.625 " fill-opacity="1" fill-rule="nonzero"/></svg>